<svg width="327" height="300" viewBox="0 0 327 300" fill="none" xmlns="http://www.w3.org/2000/svg">
<path d="M164.35 299.416C237.975 299.416 297.66 239.887 297.66 166.454C297.66 93.0212 237.975 33.4919 164.35 33.4919C90.7242 33.4919 31.0391 93.0212 31.0391 166.454C31.0391 239.887 90.7242 299.416 164.35 299.416Z" fill="#FADDC6"/>
<path d="M250.4 233.462L257.645 214.146C258.091 212.923 257.2 211.645 255.918 211.645H226.463V233.462H250.4Z" fill="#FFC397"/>
<path d="M250.401 233.462L247.865 247.47H228.024L230.616 232.962L250.401 233.462Z" fill="#FFC397"/>
<path d="M188.203 108.477C188.203 108.477 195.588 99.8884 190.655 89.1603C186.866 80.8779 174.967 76.6812 164.796 78.7101C164.796 78.7101 127.483 67.704 110.931 103.807" fill="#060615"/>
<path d="M181.6 137.354L198.626 132.518C198.097 128.154 196.954 123.346 195.143 117.954L192.523 111.867C181.683 86.7979 152.508 75.236 127.373 86.0475C123.527 87.6873 119.96 90.5222 116.839 94.0519C104.996 107.532 105.442 132.323 113.245 143.857C113.245 143.857 120.769 155.308 134.367 169.76C135.956 171.456 136.903 173.679 136.987 175.986L137.878 199.388L173.157 198.832L171.067 191.828C166.301 163.368 178.646 168.899 187.117 161.978C193.917 156.42 197.929 149.972 198.765 141.439C186.839 143.69 181.6 137.354 181.6 137.354Z" fill="#FFC397"/>
<path d="M199.852 124.458L195.561 125.736C194.223 126.153 192.802 125.375 192.384 124.041L191.743 121.956C191.325 120.622 192.105 119.205 193.443 118.788L197.734 117.509C199.657 116.926 201.691 118.01 202.276 119.927C202.861 121.845 201.775 123.874 199.852 124.458Z" fill="#ECA979"/>
<path d="M125.952 85.8808C123.36 87.5205 119.933 90.5222 116.839 94.0519C104.996 107.532 105.442 132.323 113.245 143.857C113.245 143.857 120.769 155.308 134.367 169.76C135.147 170.594 135.76 171.539 136.206 172.568C136.206 172.568 154.096 169.621 154.096 158.588C154.096 149.305 144.482 144.913 143.033 143.385C138.742 138.882 140.08 129.071 145.151 126.431C150.223 123.763 153.901 126.625 155.322 129.711C156.743 132.768 169.673 130.739 168.642 117.454C167.611 104.169 159.224 100.5 155.517 98.6378C151.839 96.8035 151.254 95.525 155.712 96.9146C162.54 99.0547 164.741 93.6072 164.769 91.3282C164.852 88.1042 171.067 88.6879 176.473 91.7729C163.348 80.739 139.912 77.0703 125.952 85.8808Z" fill="#060615"/>
<path d="M184.275 115.786C185.784 115.786 187.006 114.567 187.006 113.062C187.006 111.558 185.784 110.339 184.275 110.339C182.767 110.339 181.544 111.558 181.544 113.062C181.544 114.567 182.767 115.786 184.275 115.786Z" fill="#060615"/>
<path d="M234.406 192.829C235.493 190.911 238.056 190.244 240.286 191.356L251.571 196.942C253.828 198.054 254.748 200.583 253.633 202.584C252.519 204.585 249.788 205.308 247.531 204.196L236.663 198.804C234.294 197.637 233.263 194.913 234.406 192.829Z" fill="#F7A468"/>
<path d="M254.692 217.287C252.546 217.815 250.317 216.37 249.62 214.007L246.054 201.945C245.357 199.527 246.583 197.137 248.812 196.609C251.042 196.053 253.438 197.581 254.135 199.972L257.562 211.589C258.315 214.118 257.005 216.731 254.692 217.287Z" fill="#FFC397"/>
<path d="M246.36 217.342C244.215 217.87 241.985 216.425 241.289 214.063L237.722 202C237.025 199.582 238.251 197.192 240.481 196.664C242.71 196.108 245.106 197.637 245.803 200.027L249.231 211.645C249.983 214.174 248.673 216.786 246.36 217.342Z" fill="#FFC397"/>
<path d="M238.807 231.072L220.082 228.737C218.047 228.487 216.821 226.625 217.295 224.596L225.933 188.548C226.379 186.686 228.246 185.38 230.085 185.602L249.396 188.02C251.263 188.243 252.378 189.938 251.932 191.8L243.294 227.848C242.848 229.877 240.814 231.322 238.807 231.072Z" fill="#3E3E40"/>
<path d="M239.839 231.1L221.113 228.765C219.079 228.515 217.853 226.653 218.327 224.624L226.965 188.576C227.411 186.714 229.278 185.408 231.117 185.63L250.428 188.048C252.295 188.27 253.41 189.966 252.964 191.828L244.326 227.876C243.908 229.932 241.873 231.35 239.839 231.1Z" fill="#060615"/>
<path d="M218.437 219.927L244.464 223.179L251.514 193.829L225.459 190.577L218.437 219.927Z" fill="#005CCD"/>
<path fill-rule="evenodd" clip-rule="evenodd" d="M228.751 225.221L228.53 226.134C228.37 226.87 228.801 227.5 229.508 227.588C229.509 227.588 229.509 227.589 229.509 227.589L230.43 227.7C231.135 227.791 231.898 227.259 232.089 226.5L232.311 225.587C232.471 224.852 232.039 224.221 231.332 224.133C231.332 224.133 231.332 224.133 231.332 224.133L230.417 224.022C229.672 223.955 228.94 224.47 228.751 225.221ZM228.188 225.082C228.445 224.056 229.438 223.349 230.475 223.446L230.479 223.447L231.404 223.559C232.479 223.693 233.106 224.673 232.877 225.714L232.877 225.717L232.652 226.64C232.397 227.659 231.378 228.405 230.356 228.274L229.438 228.163L229.437 228.163C228.362 228.029 227.735 227.049 227.963 226.007L227.964 226.004L228.188 225.082Z" fill="white"/>
<path d="M252.378 222.984L245.412 227.181L238.027 216.453C236.941 214.869 237.609 212.645 239.532 211.478C241.455 210.311 243.907 210.672 244.994 212.256L252.378 222.984Z" fill="#FFC397"/>
<path d="M248.004 300H212.949L220.528 239.243H255.556L248.004 300Z" fill="#FFABA5"/>
<path d="M183.133 187.131H122.273V201.639H183.133V187.131Z" fill="#FFABA5"/>
<path d="M193.442 194.774H133.391C107.281 194.774 87.5518 218.371 92.2612 243.996L102.906 299.972H247.976L234.572 228.96C230.95 209.171 213.645 194.774 193.442 194.774Z" fill="#FFABA5"/>
<path d="M34.5227 227.125C53.0367 227.125 68.0454 212.156 68.0454 193.69C68.0454 175.225 53.0367 160.255 34.5227 160.255C16.0086 160.255 1 175.225 1 193.69C1 212.156 16.0086 227.125 34.5227 227.125Z" fill="#005CCD"/>
<path d="M162.523 66.8702C181.037 66.8702 196.045 51.9008 196.045 33.4351C196.045 14.9694 181.037 0 162.523 0C144.009 0 129 14.9694 129 33.4351C129 51.9008 144.009 66.8702 162.523 66.8702Z" fill="#813EB7"/>
<path fill-rule="evenodd" clip-rule="evenodd" d="M151.903 17.9031C152.481 17.3249 153.266 17 154.083 17C156.458 17 158.128 18.6742 159.3 20.8062C159.752 21.6284 160.095 22.4595 160.343 23.1667H154.083C153.266 23.1667 152.481 22.8418 151.903 22.2636C151.325 21.6853 151 20.9011 151 20.0833C151 19.2656 151.325 18.4813 151.903 17.9031ZM162.738 19.3605C162.593 19.6233 162.459 19.8856 162.333 20.1445C162.208 19.8856 162.073 19.6233 161.929 19.3605C160.581 16.9092 158.126 14 154.083 14C152.47 14 150.923 14.6409 149.782 15.7818C148.641 16.9226 148 18.4699 148 20.0833C148 21.6967 148.641 23.2441 149.782 24.3849C149.879 24.4825 149.98 24.5764 150.083 24.6666H146C144.895 24.6666 144 25.5621 144 26.6666V31.8333C144 32.9379 144.895 33.8333 146 33.8333H178.667C179.771 33.8333 180.667 32.9379 180.667 31.8333V26.6666C180.667 25.5621 179.771 24.6666 178.667 24.6666H174.584C174.687 24.5764 174.787 24.4825 174.885 24.3849C176.026 23.2441 176.667 21.6967 176.667 20.0833C176.667 18.4699 176.026 16.9226 174.885 15.7818C173.744 14.6409 172.197 14 170.584 14C166.541 14 164.086 16.9092 162.738 19.3605ZM164.324 23.1667H170.584C171.401 23.1667 172.186 22.8418 172.764 22.2636C173.342 21.6853 173.667 20.9011 173.667 20.0833C173.667 19.2656 173.342 18.4813 172.764 17.9031C172.186 17.3249 171.401 17 170.584 17C168.209 17 166.539 18.6742 165.367 20.8062C164.914 21.6284 164.572 22.4595 164.324 23.1667ZM147.667 50.1666V35.8333H177V50.1666C177 51.2712 176.105 52.1666 175 52.1666H149.667C148.562 52.1666 147.667 51.2712 147.667 50.1666Z" fill="#F6ECFF"/>
<path d="M292.478 218.482C310.992 218.482 326 203.512 326 185.046C326 166.581 310.992 151.611 292.478 151.611C273.964 151.611 258.955 166.581 258.955 185.046C258.955 203.512 273.964 218.482 292.478 218.482Z" fill="#007BFE"/>
<path d="M55.4783 127.515C73.9923 127.515 89.0009 112.545 89.0009 94.0796C89.0009 75.6139 73.9923 60.6445 55.4783 60.6445C36.9642 60.6445 21.9556 75.6139 21.9556 94.0796C21.9556 112.545 36.9642 127.515 55.4783 127.515Z" fill="#FF594D"/>
<path d="M261.434 121.234C279.948 121.234 294.957 106.264 294.957 87.7984C294.957 69.3327 279.948 54.3633 261.434 54.3633C242.92 54.3633 227.912 69.3327 227.912 87.7984C227.912 106.264 242.92 121.234 261.434 121.234Z" fill="#FFA620"/>
<path d="M244.688 85.1859C243.74 84.7968 242.876 84.2131 242.124 83.4627C241.344 82.6845 240.786 81.8507 240.396 80.9335C240.006 80.0164 239.811 79.0158 239.811 77.9597C239.811 77.1814 239.922 76.431 240.145 75.7084C240.368 74.9858 240.703 74.291 241.176 73.6239C241.622 72.9569 242.152 72.401 242.765 71.9008C243.378 71.4005 244.047 70.9836 244.827 70.6779C245.05 70.5667 245.301 70.4555 245.524 70.3721C245.746 70.2888 246.025 70.2332 246.276 70.2054C246.527 70.1498 246.778 70.122 247.056 70.0942C247.307 70.0942 247.558 70.0664 247.836 70.0664C247.976 70.0664 248.115 70.0664 248.227 70.0942C248.338 70.122 248.477 70.122 248.617 70.122C248.728 70.1498 248.84 70.1776 248.979 70.1776C249.118 70.2054 249.23 70.2054 249.341 70.2332C249.592 70.261 249.843 70.3165 250.094 70.3999C250.344 70.4833 250.567 70.5667 250.79 70.6501C251.57 70.9558 252.239 71.3727 252.852 71.873C253.437 72.3732 253.967 72.9569 254.385 73.5961C254.803 74.291 255.137 74.9858 255.36 75.6806C255.583 76.4032 255.695 77.1259 255.695 77.8485C255.695 77.9041 255.695 77.9597 255.695 78.043C255.695 78.1264 255.695 78.182 255.695 78.2376C255.667 78.2932 255.639 78.3488 255.639 78.4321C255.639 78.5155 255.639 78.5711 255.639 78.6267C255.639 78.6823 255.639 78.7379 255.611 78.7935C255.583 78.849 255.583 78.9046 255.583 78.9602C255.555 79.0436 255.527 79.127 255.527 79.1826C255.527 79.2381 255.527 79.2937 255.527 79.3493C255.5 79.4049 255.472 79.4605 255.472 79.5439C255.444 79.6272 255.444 79.6828 255.444 79.7384C255.416 79.794 255.388 79.8496 255.388 79.933C255.36 80.0164 255.36 80.0719 255.332 80.1275C255.304 80.1831 255.277 80.2387 255.277 80.2943C255.249 80.3499 255.249 80.4055 255.221 80.461C255.193 80.5444 255.165 80.6278 255.165 80.6834C255.137 80.739 255.137 80.7946 255.109 80.8501C254.998 81.0725 254.886 81.2948 254.747 81.5172C254.608 81.7395 254.496 81.9619 254.329 82.1842C254.19 82.3788 254.023 82.6011 253.855 82.7957C253.688 83.018 253.521 83.2126 253.354 83.3793C252.992 83.7406 252.574 84.0741 252.156 84.3521C251.738 84.63 251.264 84.8524 250.79 85.0469C250.344 85.2415 249.843 85.4082 249.369 85.5194C248.867 85.6306 248.366 85.6862 247.836 85.6862V85.6306C246.666 85.7417 245.635 85.575 244.688 85.1859ZM271.662 104.53C271.049 104.057 270.547 103.474 270.073 102.835C269.628 102.167 269.293 101.5 269.07 100.778C268.847 100.055 268.736 99.3326 268.736 98.5544C268.736 97.7762 268.847 97.0257 269.07 96.3031C269.293 95.5805 269.628 94.8857 270.101 94.2464C270.547 93.5794 271.077 93.0235 271.69 92.5511C272.275 92.0786 272.971 91.7173 273.696 91.4115C273.835 91.356 274.002 91.3004 274.142 91.2448C274.309 91.1892 274.476 91.1336 274.643 91.1058C274.727 91.078 274.811 91.0502 274.894 91.0502C274.978 91.0502 275.061 91.0224 275.145 90.9946C275.229 90.9946 275.312 90.9946 275.396 90.9669C275.479 90.9669 275.563 90.9391 275.647 90.9113C275.702 90.9113 275.758 90.9113 275.786 90.9113C275.814 90.9113 275.869 90.9113 275.925 90.9113C275.953 90.9113 275.981 90.9113 276.037 90.9113C276.092 90.9113 276.12 90.9113 276.148 90.9113C276.204 90.9113 276.26 90.9113 276.287 90.9113C276.343 90.9113 276.371 90.9113 276.399 90.8557C276.455 90.8557 276.51 90.8557 276.538 90.8557C276.566 90.8557 276.622 90.8557 276.65 90.8557C276.901 90.8557 277.151 90.8557 277.43 90.8835C277.681 90.9113 277.932 90.9391 278.21 90.9946C278.461 91.0224 278.712 91.078 278.963 91.1614C279.213 91.2448 279.436 91.356 279.659 91.4671C280.412 91.7728 281.053 92.1897 281.638 92.69C282.223 93.1903 282.724 93.774 283.17 94.4132C283.56 95.0802 283.867 95.7473 284.09 96.4421C284.313 97.1369 284.424 97.8595 284.424 98.61C284.424 98.6378 284.424 98.6655 284.424 98.7211C284.424 98.7767 284.424 98.8045 284.424 98.8601C284.424 98.8879 284.424 98.9157 284.424 98.9713C284.424 99.0269 284.424 99.0547 284.424 99.1102C284.396 99.5549 284.313 99.9996 284.201 100.444C284.062 100.861 283.923 101.306 283.756 101.723C283.588 102.14 283.365 102.557 283.087 102.946C282.808 103.335 282.502 103.696 282.167 104.03C281.805 104.391 281.387 104.724 280.941 105.002C280.495 105.28 280.022 105.503 279.548 105.642C279.074 105.836 278.572 106.003 278.071 106.086C277.569 106.197 277.068 106.225 276.538 106.225C276.483 106.225 276.427 106.225 276.371 106.225C276.315 106.225 276.26 106.225 276.204 106.225C276.12 106.197 276.037 106.17 275.981 106.17C275.925 106.17 275.869 106.17 275.814 106.17C275.702 106.142 275.591 106.114 275.479 106.114C275.368 106.086 275.256 106.086 275.145 106.059C275.033 106.031 274.922 106.003 274.783 106.003C274.643 105.975 274.532 105.947 274.365 105.892C274.253 105.864 274.142 105.836 274.03 105.781C273.919 105.725 273.807 105.697 273.696 105.642V105.697C272.944 105.391 272.275 105.002 271.662 104.53Z" fill="#FFEED6"/>
<path d="M249.341 101.056C249.341 101.056 249.341 101.028 249.341 101C249.313 101 249.285 101 249.285 100.972C249.285 100.972 249.285 100.945 249.285 100.917C249.285 100.889 249.285 100.861 249.285 100.806C249.285 100.75 249.285 100.722 249.285 100.694C249.285 100.667 249.285 100.639 249.285 100.611C249.285 100.583 249.285 100.555 249.285 100.528C249.285 100.5 249.285 100.472 249.285 100.444C249.285 100.416 249.285 100.389 249.285 100.361C249.285 100.166 249.313 99.9718 249.341 99.7494C249.369 99.5549 249.424 99.3603 249.48 99.1658C249.536 98.9712 249.62 98.7767 249.703 98.5821C249.815 98.3876 249.898 98.2208 250.038 98.0541L266.729 74.013C266.924 73.7629 267.147 73.5127 267.426 73.3182C267.705 73.1236 267.955 72.9291 268.234 72.7901C268.541 72.6511 268.875 72.54 269.181 72.4566C269.488 72.3732 269.822 72.3176 270.129 72.3176C270.324 72.3176 270.519 72.3454 270.714 72.3732C270.909 72.401 271.104 72.4566 271.299 72.5122C271.383 72.54 271.466 72.5678 271.55 72.6234C271.634 72.6789 271.745 72.7067 271.857 72.7345C271.94 72.7901 272.024 72.8457 272.107 72.8735C272.191 72.9291 272.275 72.9569 272.358 73.0125C272.637 73.207 272.888 73.4293 273.111 73.6517C273.333 73.874 273.501 74.152 273.64 74.4577C273.779 74.7356 273.891 75.0414 273.974 75.3471C274.058 75.6528 274.086 75.9585 274.086 76.2643C274.086 76.4588 274.058 76.6534 274.03 76.8479C274.002 77.0425 273.946 77.2092 273.891 77.376C273.835 77.5705 273.751 77.7651 273.668 77.9318C273.584 78.0986 273.473 78.2654 273.361 78.4321L256.586 102.418C256.447 102.668 256.279 102.89 256.084 103.085C255.889 103.279 255.666 103.446 255.444 103.585C255.221 103.696 254.97 103.807 254.719 103.918C254.468 104.03 254.217 104.085 253.939 104.141C253.911 104.141 253.883 104.141 253.855 104.141C253.827 104.141 253.799 104.169 253.772 104.196C253.716 104.196 253.66 104.196 253.632 104.196C253.604 104.196 253.577 104.196 253.549 104.196C253.521 104.196 253.493 104.196 253.465 104.196C253.437 104.196 253.409 104.224 253.381 104.252C253.326 104.252 253.27 104.252 253.242 104.252C253.214 104.252 253.186 104.252 253.159 104.252C252.713 104.252 252.267 104.169 251.849 104.03C251.431 103.891 251.041 103.696 250.678 103.446C250.316 103.14 250.01 102.779 249.815 102.39C249.564 101.973 249.424 101.528 249.341 101.056C249.341 101.084 249.341 101.084 249.341 101.056Z" fill="#FFEED6"/>
<path d="M306.745 176.431C306.745 169.01 300.726 163.007 293.285 163.007C285.845 163.007 279.826 169.01 279.826 176.431C279.826 181.823 286.291 195.858 290.499 203.112C292.087 205.836 292.394 207.615 293.285 207.615C294.01 207.615 295.208 206.142 296.601 203.779C300.809 196.748 306.745 181.99 306.745 176.431Z" fill="#E2F0FF"/>
<path d="M293.118 181.878C295.934 181.878 298.217 179.601 298.217 176.792C298.217 173.983 295.934 171.706 293.118 171.706C290.302 171.706 288.019 173.983 288.019 176.792C288.019 179.601 290.302 181.878 293.118 181.878Z" fill="#007BFE"/>
<path d="M45.8079 114.758H45.1391C43.8294 114.758 42.7705 113.702 42.7705 112.396V92.6346C42.7705 91.3284 43.8294 90.2722 45.1391 90.2722H45.8079C47.1176 90.2722 48.1765 91.3284 48.1765 92.6346V112.396C48.1765 113.702 47.1176 114.758 45.8079 114.758Z" fill="#FFDDDB"/>
<path d="M45.4181 93.9687C41.6005 93.9687 38.4795 90.8837 38.4795 87.0482V81.6842C38.4795 77.8765 41.5726 74.7637 45.4181 74.7637C49.2357 74.7637 52.3567 77.8487 52.3567 81.6842V87.0482C52.3289 90.8837 49.2357 93.9687 45.4181 93.9687Z" fill="#FFDDDB"/>
<path d="M64.0599 114.758H63.3911C62.0814 114.758 61.0225 113.702 61.0225 112.396V92.6349C61.0225 91.3286 62.0814 90.2725 63.3911 90.2725H64.0599C65.3696 90.2725 66.4285 91.3286 66.4285 92.6349V112.396C66.4285 113.702 65.3696 114.758 64.0599 114.758Z" fill="#FFDDDB"/>
<path d="M70.6087 85.6587V87.0483C70.6087 90.856 67.5155 93.9688 63.6701 93.9688C59.8524 93.9688 56.7314 90.8838 56.7314 87.0483V85.6587" fill="#FFDDDB"/>
<path d="M58.4591 75.4585C57.5117 75.4585 56.7314 76.2367 56.7314 77.1817V86.9649H60.159V77.1817C60.1868 76.2089 59.4066 75.4585 58.4591 75.4585Z" fill="#FFDDDB"/>
<path d="M63.9757 75.4585C63.0283 75.4585 62.248 76.2367 62.248 77.1817V86.9649H65.6755V77.1817C65.7034 76.2089 64.9232 75.4585 63.9757 75.4585Z" fill="#FFDDDB"/>
<path d="M68.8805 75.4585C67.9331 75.4585 67.1528 76.2367 67.1528 77.1817V86.9649H70.5803V77.1817C70.5803 76.2089 69.828 75.4585 68.8805 75.4585Z" fill="#FFDDDB"/>
<path fill-rule="evenodd" clip-rule="evenodd" d="M33.3442 208.159C32.6993 208.875 31.7687 209.417 30.4737 209.646L30.4724 209.646C28.0724 210.066 26.5301 209.046 25.6206 207.922C25.1751 207.372 24.8825 206.801 24.7015 206.371C24.6105 206.155 24.5463 205.972 24.5043 205.84C24.4833 205.774 24.4677 205.721 24.4571 205.683C24.4518 205.664 24.4477 205.648 24.4448 205.637L24.4412 205.623L24.44 205.618L24.4396 205.617L24.4395 205.616C24.4394 205.616 24.4393 205.615 25.0191 205.475C25.599 205.334 25.5989 205.334 25.5988 205.333L25.5986 205.332L25.5998 205.337C25.6012 205.342 25.6035 205.351 25.607 205.364C25.614 205.389 25.6254 205.428 25.6417 205.479C25.6744 205.582 25.7265 205.731 25.8018 205.91C25.9534 206.27 26.1938 206.735 26.5494 207.175C27.2421 208.031 28.3748 208.804 30.2656 208.474C31.3249 208.286 32.007 207.862 32.4566 207.364C32.9128 206.857 33.1651 206.235 33.2918 205.601C33.4186 204.967 33.4143 204.347 33.3758 203.879C33.3567 203.647 33.3295 203.456 33.3076 203.326C33.2966 203.261 33.287 203.211 33.2804 203.178C33.2771 203.162 33.2746 203.15 33.273 203.143L33.2715 203.136C33.2715 203.137 33.2715 203.137 33.8526 203.001C34.4337 202.865 34.4338 202.866 34.4338 202.866L34.4344 202.868L34.4355 202.873L34.4389 202.889C34.4418 202.902 34.4455 202.919 34.4501 202.942C34.4592 202.986 34.4713 203.049 34.4846 203.129C34.5113 203.287 34.5431 203.511 34.5654 203.782C34.6096 204.32 34.6176 205.058 34.4622 205.834C34.3068 206.612 33.9826 207.451 33.3442 208.159Z" fill="#FFABA5"/>
<path d="M44.6926 174.346L56.9258 196.831C57.7339 198.304 56.87 200.138 55.1981 200.444L23.0687 206.558L19.1675 198.304L40.6521 173.929C41.7946 172.595 43.8845 172.845 44.6926 174.346Z" fill="#FFABA5"/>
<path d="M19.1677 198.276L14.0404 198.832C13.3438 198.915 12.8979 199.61 13.1487 200.277L16.409 209.171C16.6319 209.81 17.4122 210.088 17.9974 209.727L23.069 206.558L19.1677 198.276Z" fill="#FFABA5"/>
</svg>
