<svg width="30" height="30" viewBox="0 0 30 30" fill="none" xmlns="http://www.w3.org/2000/svg">
<path d="M14.9999 0.833313C7.17992 0.833313 0.833252 7.17998 0.833252 15C0.833252 22.82 7.17992 29.1666 14.9999 29.1666C22.8199 29.1666 29.1666 22.82 29.1666 15C29.1666 7.17998 22.8199 0.833313 14.9999 0.833313ZM3.66659 15C3.66659 8.73831 8.73825 3.66665 14.9999 3.66665C17.6208 3.66665 20.0291 4.55915 21.9416 6.06081L6.06075 21.9416C4.55909 20.0291 3.66659 17.6208 3.66659 15ZM14.9999 26.3333C12.3791 26.3333 9.97075 25.4408 8.05825 23.9391L23.9391 8.05831C25.4408 9.97081 26.3333 12.3791 26.3333 15C26.3333 21.2616 21.2616 26.3333 14.9999 26.3333Z" fill="#2FC8B3"/>
</svg>
