<svg width="354" height="211" viewBox="0 0 354 211" fill="none" xmlns="http://www.w3.org/2000/svg">
<rect width="354" height="210.167" rx="20" fill="url(#paint0_linear_1_77)"/>
<ellipse cx="314.565" cy="34.2123" rx="11.3052" ry="10.379" fill="white" fill-opacity="0.4"/>
<ellipse cx="298.045" cy="34.2123" rx="11.3052" ry="10.379" fill="white" fill-opacity="0.5"/>
<path d="M37.978 26.954V28.286H32.524V32.516H36.952V33.848H32.524V39.5H30.886V26.954H37.978ZM39.3443 34.532C39.3443 33.524 39.5483 32.642 39.9563 31.886C40.3643 31.118 40.9223 30.524 41.6303 30.104C42.3503 29.684 43.1483 29.474 44.0243 29.474C44.8883 29.474 45.6383 29.66 46.2743 30.032C46.9103 30.404 47.3843 30.872 47.6963 31.436V29.636H49.3523V39.5H47.6963V37.664C47.3723 38.24 46.8863 38.72 46.2383 39.104C45.6023 39.476 44.8583 39.662 44.0063 39.662C43.1303 39.662 42.3383 39.446 41.6303 39.014C40.9223 38.582 40.3643 37.976 39.9563 37.196C39.5483 36.416 39.3443 35.528 39.3443 34.532ZM47.6963 34.55C47.6963 33.806 47.5463 33.158 47.2463 32.606C46.9463 32.054 46.5383 31.634 46.0223 31.346C45.5183 31.046 44.9603 30.896 44.3483 30.896C43.7363 30.896 43.1783 31.04 42.6743 31.328C42.1703 31.616 41.7683 32.036 41.4683 32.588C41.1683 33.14 41.0183 33.788 41.0183 34.532C41.0183 35.288 41.1683 35.948 41.4683 36.512C41.7683 37.064 42.1703 37.49 42.6743 37.79C43.1783 38.078 43.7363 38.222 44.3483 38.222C44.9603 38.222 45.5183 38.078 46.0223 37.79C46.5383 37.49 46.9463 37.064 47.2463 36.512C47.5463 35.948 47.6963 35.294 47.6963 34.55ZM53.3444 38.15H58.1864V39.5H51.4724V38.15L56.2604 30.968H51.5084V29.636H58.1504V30.968L53.3444 38.15ZM69.0886 39.626C68.2606 39.626 67.5166 39.482 66.8566 39.194C66.2086 38.894 65.6986 38.486 65.3266 37.97C64.9546 37.442 64.7626 36.836 64.7506 36.152H66.4966C66.5566 36.74 66.7966 37.238 67.2166 37.646C67.6486 38.042 68.2726 38.24 69.0886 38.24C69.8686 38.24 70.4806 38.048 70.9246 37.664C71.3806 37.268 71.6086 36.764 71.6086 36.152C71.6086 35.672 71.4766 35.282 71.2126 34.982C70.9486 34.682 70.6186 34.454 70.2226 34.298C69.8266 34.142 69.2926 33.974 68.6206 33.794C67.7926 33.578 67.1266 33.362 66.6226 33.146C66.1306 32.93 65.7046 32.594 65.3446 32.138C64.9966 31.67 64.8226 31.046 64.8226 30.266C64.8226 29.582 64.9966 28.976 65.3446 28.448C65.6926 27.92 66.1786 27.512 66.8026 27.224C67.4386 26.936 68.1646 26.792 68.9806 26.792C70.1566 26.792 71.1166 27.086 71.8606 27.674C72.6166 28.262 73.0426 29.042 73.1386 30.014H71.3386C71.2786 29.534 71.0266 29.114 70.5826 28.754C70.1386 28.382 69.5506 28.196 68.8186 28.196C68.1346 28.196 67.5766 28.376 67.1446 28.736C66.7126 29.084 66.4966 29.576 66.4966 30.212C66.4966 30.668 66.6226 31.04 66.8746 31.328C67.1386 31.616 67.4566 31.838 67.8286 31.994C68.2126 32.138 68.7466 32.306 69.4306 32.498C70.2586 32.726 70.9246 32.954 71.4286 33.182C71.9326 33.398 72.3646 33.74 72.7246 34.208C73.0846 34.664 73.2646 35.288 73.2646 36.08C73.2646 36.692 73.1026 37.268 72.7786 37.808C72.4546 38.348 71.9746 38.786 71.3386 39.122C70.7026 39.458 69.9526 39.626 69.0886 39.626ZM75.0631 34.532C75.0631 33.524 75.2671 32.642 75.6751 31.886C76.0831 31.118 76.6411 30.524 77.3491 30.104C78.0691 29.684 78.8671 29.474 79.7431 29.474C80.6071 29.474 81.3571 29.66 81.9931 30.032C82.6291 30.404 83.1031 30.872 83.4151 31.436V29.636H85.0711V39.5H83.4151V37.664C83.0911 38.24 82.6051 38.72 81.9571 39.104C81.3211 39.476 80.5771 39.662 79.7251 39.662C78.8491 39.662 78.0571 39.446 77.3491 39.014C76.6411 38.582 76.0831 37.976 75.6751 37.196C75.2671 36.416 75.0631 35.528 75.0631 34.532ZM83.4151 34.55C83.4151 33.806 83.2651 33.158 82.9651 32.606C82.6651 32.054 82.2571 31.634 81.7411 31.346C81.2371 31.046 80.6791 30.896 80.0671 30.896C79.4551 30.896 78.8971 31.04 78.3931 31.328C77.8891 31.616 77.4871 32.036 77.1871 32.588C76.8871 33.14 76.7371 33.788 76.7371 34.532C76.7371 35.288 76.8871 35.948 77.1871 36.512C77.4871 37.064 77.8891 37.49 78.3931 37.79C78.8971 38.078 79.4551 38.222 80.0671 38.222C80.6791 38.222 81.2371 38.078 81.7411 37.79C82.2571 37.49 82.6651 37.064 82.9651 36.512C83.2651 35.948 83.4151 35.294 83.4151 34.55ZM99.7011 29.456C100.469 29.456 101.153 29.618 101.753 29.942C102.353 30.254 102.827 30.728 103.175 31.364C103.523 32 103.697 32.774 103.697 33.686V39.5H102.077V33.92C102.077 32.936 101.831 32.186 101.339 31.67C100.859 31.142 100.205 30.878 99.3771 30.878C98.5251 30.878 97.8471 31.154 97.3431 31.706C96.8391 32.246 96.5871 33.032 96.5871 34.064V39.5H94.9671V33.92C94.9671 32.936 94.7211 32.186 94.2291 31.67C93.7491 31.142 93.0951 30.878 92.2671 30.878C91.4151 30.878 90.7371 31.154 90.2331 31.706C89.7291 32.246 89.4771 33.032 89.4771 34.064V39.5H87.8391V29.636H89.4771V31.058C89.8011 30.542 90.2331 30.146 90.7731 29.87C91.3251 29.594 91.9311 29.456 92.5911 29.456C93.4191 29.456 94.1511 29.642 94.7871 30.014C95.4231 30.386 95.8971 30.932 96.2091 31.652C96.4851 30.956 96.9411 30.416 97.5771 30.032C98.2131 29.648 98.9211 29.456 99.7011 29.456Z" fill="white"/>
<path d="M37.588 148.743L34.456 157.083H32.872L29.728 148.743H31.192L33.664 155.679L36.148 148.743H37.588ZM43.76 155.379H40.268L39.668 157.083H38.24L41.228 148.731H42.812L45.8 157.083H44.36L43.76 155.379ZM43.376 154.263L42.02 150.387L40.652 154.263H43.376ZM48.4672 155.979H51.2872V157.083H47.0992V148.743H48.4672V155.979ZM53.7993 148.743V157.083H52.4313V148.743H53.7993ZM58.3193 148.743C59.2073 148.743 59.9833 148.915 60.6473 149.259C61.3193 149.595 61.8353 150.083 62.1953 150.723C62.5633 151.355 62.7473 152.095 62.7473 152.943C62.7473 153.791 62.5633 154.527 62.1953 155.151C61.8353 155.775 61.3193 156.255 60.6473 156.591C59.9833 156.919 59.2073 157.083 58.3193 157.083H55.5953V148.743H58.3193ZM58.3193 155.967C59.2953 155.967 60.0433 155.703 60.5633 155.175C61.0833 154.647 61.3433 153.903 61.3433 152.943C61.3433 151.975 61.0833 151.219 60.5633 150.675C60.0433 150.131 59.2953 149.859 58.3193 149.859H56.9633V155.967H58.3193ZM72.6083 148.743V149.859H70.3883V157.083H69.0203V149.859H66.7883V148.743H72.6083ZM80.6538 148.743V157.083H79.2858V153.435H75.3618V157.083H73.9938V148.743H75.3618V152.319H79.2858V148.743H80.6538ZM86.7867 157.083L84.8667 153.747H83.8227V157.083H82.4547V148.743H85.3347C85.9747 148.743 86.5147 148.855 86.9547 149.079C87.4027 149.303 87.7347 149.603 87.9507 149.979C88.1747 150.355 88.2867 150.775 88.2867 151.239C88.2867 151.783 88.1267 152.279 87.8067 152.727C87.4947 153.167 87.0107 153.467 86.3547 153.627L88.4187 157.083H86.7867ZM83.8227 152.655H85.3347C85.8467 152.655 86.2307 152.527 86.4867 152.271C86.7507 152.015 86.8827 151.671 86.8827 151.239C86.8827 150.807 86.7547 150.471 86.4987 150.231C86.2427 149.983 85.8547 149.859 85.3347 149.859H83.8227V152.655ZM91.3927 148.743V154.059C91.3927 154.691 91.5567 155.167 91.8847 155.487C92.2207 155.807 92.6847 155.967 93.2767 155.967C93.8767 155.967 94.3407 155.807 94.6687 155.487C95.0047 155.167 95.1727 154.691 95.1727 154.059V148.743H96.5407V154.035C96.5407 154.715 96.3927 155.291 96.0967 155.763C95.8007 156.235 95.4047 156.587 94.9087 156.819C94.4127 157.051 93.8647 157.167 93.2647 157.167C92.6647 157.167 92.1167 157.051 91.6207 156.819C91.1327 156.587 90.7447 156.235 90.4567 155.763C90.1687 155.291 90.0247 154.715 90.0247 154.035V148.743H91.3927Z" fill="white"/>
<path d="M281.661 152.799C282.109 152.879 282.489 153.115 282.801 153.507C283.113 153.899 283.269 154.343 283.269 154.839C283.269 155.263 283.157 155.647 282.933 155.991C282.717 156.327 282.401 156.595 281.985 156.795C281.569 156.987 281.085 157.083 280.533 157.083H277.197V148.743H280.377C280.945 148.743 281.433 148.839 281.841 149.031C282.249 149.223 282.557 149.483 282.765 149.811C282.973 150.131 283.077 150.491 283.077 150.891C283.077 151.371 282.949 151.771 282.693 152.091C282.437 152.411 282.093 152.647 281.661 152.799ZM278.565 152.247H280.257C280.705 152.247 281.053 152.147 281.301 151.947C281.557 151.739 281.685 151.443 281.685 151.059C281.685 150.683 281.557 150.391 281.301 150.183C281.053 149.967 280.705 149.859 280.257 149.859H278.565V152.247ZM280.413 155.967C280.877 155.967 281.241 155.855 281.505 155.631C281.769 155.407 281.901 155.095 281.901 154.695C281.901 154.287 281.761 153.963 281.481 153.723C281.201 153.483 280.829 153.363 280.365 153.363H278.565V155.967H280.413ZM284.3 153.747C284.3 153.083 284.436 152.495 284.708 151.983C284.988 151.471 285.364 151.075 285.836 150.795C286.316 150.507 286.844 150.363 287.42 150.363C287.94 150.363 288.392 150.467 288.776 150.675C289.168 150.875 289.48 151.127 289.712 151.431V150.471H291.092V157.083H289.712V156.099C289.48 156.411 289.164 156.671 288.764 156.879C288.364 157.087 287.908 157.191 287.396 157.191C286.828 157.191 286.308 157.047 285.836 156.759C285.364 156.463 284.988 156.055 284.708 155.535C284.436 155.007 284.3 154.411 284.3 153.747ZM289.712 153.771C289.712 153.315 289.616 152.919 289.424 152.583C289.24 152.247 288.996 151.991 288.692 151.815C288.388 151.639 288.06 151.551 287.708 151.551C287.356 151.551 287.028 151.639 286.724 151.815C286.42 151.983 286.172 152.235 285.98 152.571C285.796 152.899 285.704 153.291 285.704 153.747C285.704 154.203 285.796 154.603 285.98 154.947C286.172 155.291 286.42 155.555 286.724 155.739C287.036 155.915 287.364 156.003 287.708 156.003C288.06 156.003 288.388 155.915 288.692 155.739C288.996 155.563 289.24 155.307 289.424 154.971C289.616 154.627 289.712 154.227 289.712 153.771ZM294.257 148.203V157.083H292.889V148.203H294.257ZM295.597 153.747C295.597 153.083 295.733 152.495 296.005 151.983C296.285 151.471 296.661 151.075 297.133 150.795C297.613 150.507 298.141 150.363 298.717 150.363C299.237 150.363 299.689 150.467 300.073 150.675C300.465 150.875 300.777 151.127 301.009 151.431V150.471H302.389V157.083H301.009V156.099C300.777 156.411 300.461 156.671 300.061 156.879C299.661 157.087 299.205 157.191 298.693 157.191C298.125 157.191 297.605 157.047 297.133 156.759C296.661 156.463 296.285 156.055 296.005 155.535C295.733 155.007 295.597 154.411 295.597 153.747ZM301.009 153.771C301.009 153.315 300.913 152.919 300.721 152.583C300.537 152.247 300.293 151.991 299.989 151.815C299.685 151.639 299.357 151.551 299.005 151.551C298.653 151.551 298.325 151.639 298.021 151.815C297.717 151.983 297.469 152.235 297.277 152.571C297.093 152.899 297.001 153.291 297.001 153.747C297.001 154.203 297.093 154.603 297.277 154.947C297.469 155.291 297.717 155.555 298.021 155.739C298.333 155.915 298.661 156.003 299.005 156.003C299.357 156.003 299.685 155.915 299.989 155.739C300.293 155.563 300.537 155.307 300.721 154.971C300.913 154.627 301.009 154.227 301.009 153.771ZM307.522 150.363C308.042 150.363 308.506 150.471 308.914 150.687C309.33 150.903 309.654 151.223 309.886 151.647C310.118 152.071 310.234 152.583 310.234 153.183V157.083H308.878V153.387C308.878 152.795 308.73 152.343 308.434 152.031C308.138 151.711 307.734 151.551 307.222 151.551C306.71 151.551 306.302 151.711 305.998 152.031C305.702 152.343 305.554 152.795 305.554 153.387V157.083H304.186V150.471H305.554V151.227C305.778 150.955 306.062 150.743 306.406 150.591C306.758 150.439 307.13 150.363 307.522 150.363ZM311.523 153.771C311.523 153.091 311.659 152.495 311.931 151.983C312.211 151.463 312.595 151.063 313.083 150.783C313.571 150.503 314.131 150.363 314.763 150.363C315.563 150.363 316.223 150.555 316.743 150.939C317.271 151.315 317.627 151.855 317.811 152.559H316.335C316.215 152.231 316.023 151.975 315.759 151.791C315.495 151.607 315.163 151.515 314.763 151.515C314.203 151.515 313.755 151.715 313.419 152.115C313.091 152.507 312.927 153.059 312.927 153.771C312.927 154.483 313.091 155.039 313.419 155.439C313.755 155.839 314.203 156.039 314.763 156.039C315.555 156.039 316.079 155.691 316.335 154.995H317.811C317.619 155.667 317.259 156.203 316.731 156.603C316.203 156.995 315.547 157.191 314.763 157.191C314.131 157.191 313.571 157.051 313.083 156.771C312.595 156.483 312.211 156.083 311.931 155.571C311.659 155.051 311.523 154.451 311.523 153.771ZM325.234 153.615C325.234 153.863 325.218 154.087 325.186 154.287H320.134C320.174 154.815 320.37 155.239 320.722 155.559C321.074 155.879 321.506 156.039 322.018 156.039C322.754 156.039 323.274 155.731 323.578 155.115H325.054C324.854 155.723 324.49 156.223 323.962 156.615C323.442 156.999 322.794 157.191 322.018 157.191C321.386 157.191 320.818 157.051 320.314 156.771C319.818 156.483 319.426 156.083 319.138 155.571C318.858 155.051 318.718 154.451 318.718 153.771C318.718 153.091 318.854 152.495 319.126 151.983C319.406 151.463 319.794 151.063 320.29 150.783C320.794 150.503 321.37 150.363 322.018 150.363C322.642 150.363 323.198 150.499 323.686 150.771C324.174 151.043 324.554 151.427 324.826 151.923C325.098 152.411 325.234 152.975 325.234 153.615ZM323.806 153.183C323.798 152.679 323.618 152.275 323.266 151.971C322.914 151.667 322.478 151.515 321.958 151.515C321.486 151.515 321.082 151.667 320.746 151.971C320.41 152.267 320.21 152.671 320.146 153.183H323.806Z" fill="white"/>
<path d="M30.43 175.048C30.43 173.328 30.71 171.988 31.27 171.028C31.83 170.058 32.81 169.573 34.21 169.573C35.6 169.573 36.575 170.058 37.135 171.028C37.695 171.988 37.975 173.328 37.975 175.048C37.975 176.798 37.695 178.158 37.135 179.128C36.575 180.098 35.6 180.583 34.21 180.583C32.81 180.583 31.83 180.098 31.27 179.128C30.71 178.158 30.43 176.798 30.43 175.048ZM36.625 175.048C36.625 174.178 36.565 173.443 36.445 172.843C36.335 172.233 36.1 171.743 35.74 171.373C35.39 171.003 34.88 170.818 34.21 170.818C33.53 170.818 33.01 171.003 32.65 171.373C32.3 171.743 32.065 172.233 31.945 172.843C31.835 173.443 31.78 174.178 31.78 175.048C31.78 175.948 31.835 176.703 31.945 177.313C32.065 177.923 32.3 178.413 32.65 178.783C33.01 179.153 33.53 179.338 34.21 179.338C34.88 179.338 35.39 179.153 35.74 178.783C36.1 178.413 36.335 177.923 36.445 177.313C36.565 176.703 36.625 175.948 36.625 175.048ZM46.7639 170.923H41.4989V174.343C41.7289 174.023 42.0689 173.763 42.5189 173.563C42.9689 173.353 43.4539 173.248 43.9739 173.248C44.8039 173.248 45.4789 173.423 45.9989 173.773C46.5189 174.113 46.8889 174.558 47.1089 175.108C47.3389 175.648 47.4539 176.223 47.4539 176.833C47.4539 177.553 47.3189 178.198 47.0489 178.768C46.7789 179.338 46.3639 179.788 45.8039 180.118C45.2539 180.448 44.5689 180.613 43.7489 180.613C42.6989 180.613 41.8489 180.343 41.1989 179.803C40.5489 179.263 40.1539 178.543 40.0139 177.643H41.3489C41.4789 178.213 41.7539 178.658 42.1739 178.978C42.5939 179.298 43.1239 179.458 43.7639 179.458C44.5539 179.458 45.1489 179.223 45.5489 178.753C45.9489 178.273 46.1489 177.643 46.1489 176.863C46.1489 176.083 45.9489 175.483 45.5489 175.063C45.1489 174.633 44.5589 174.418 43.7789 174.418C43.2489 174.418 42.7839 174.548 42.3839 174.808C41.9939 175.058 41.7089 175.403 41.5289 175.843H40.2389V169.723H46.7639V170.923ZM54.5929 166.453L50.4829 183.133H49.1329L53.2279 166.453H54.5929ZM56.2367 179.488C57.5067 178.468 58.5017 177.633 59.2217 176.983C59.9417 176.323 60.5467 175.638 61.0367 174.928C61.5367 174.208 61.7867 173.503 61.7867 172.813C61.7867 172.163 61.6267 171.653 61.3067 171.283C60.9967 170.903 60.4917 170.713 59.7917 170.713C59.1117 170.713 58.5817 170.928 58.2017 171.358C57.8317 171.778 57.6317 172.343 57.6017 173.053H56.2817C56.3217 171.933 56.6617 171.068 57.3017 170.458C57.9417 169.848 58.7667 169.543 59.7767 169.543C60.8067 169.543 61.6217 169.828 62.2217 170.398C62.8317 170.968 63.1367 171.753 63.1367 172.753C63.1367 173.583 62.8867 174.393 62.3867 175.183C61.8967 175.963 61.3367 176.653 60.7067 177.253C60.0767 177.843 59.2717 178.533 58.2917 179.323H63.4517V180.463H56.2367V179.488ZM67.0096 174.943C66.4496 174.723 66.0196 174.403 65.7196 173.983C65.4196 173.563 65.2696 173.053 65.2696 172.453C65.2696 171.913 65.4046 171.428 65.6746 170.998C65.9446 170.558 66.3446 170.213 66.8746 169.963C67.4146 169.703 68.0646 169.573 68.8246 169.573C69.5846 169.573 70.2296 169.703 70.7596 169.963C71.2996 170.213 71.7046 170.558 71.9746 170.998C72.2546 171.428 72.3946 171.913 72.3946 172.453C72.3946 173.033 72.2396 173.543 71.9296 173.983C71.6196 174.413 71.1946 174.733 70.6546 174.943C71.2746 175.133 71.7646 175.468 72.1246 175.948C72.4946 176.418 72.6796 176.988 72.6796 177.658C72.6796 178.308 72.5196 178.878 72.1996 179.368C71.8796 179.848 71.4246 180.223 70.8346 180.493C70.2546 180.753 69.5846 180.883 68.8246 180.883C68.0646 180.883 67.3946 180.753 66.8146 180.493C66.2446 180.223 65.7996 179.848 65.4796 179.368C65.1596 178.878 64.9996 178.308 64.9996 177.658C64.9996 176.988 65.1796 176.413 65.5396 175.933C65.8996 175.453 66.3896 175.123 67.0096 174.943ZM71.0746 172.618C71.0746 172.008 70.8746 171.538 70.4746 171.208C70.0746 170.878 69.5246 170.713 68.8246 170.713C68.1346 170.713 67.5896 170.878 67.1896 171.208C66.7896 171.538 66.5896 172.013 66.5896 172.633C66.5896 173.193 66.7946 173.643 67.2046 173.983C67.6246 174.323 68.1646 174.493 68.8246 174.493C69.4946 174.493 70.0346 174.323 70.4446 173.983C70.8646 173.633 71.0746 173.178 71.0746 172.618ZM68.8246 175.543C68.0846 175.543 67.4796 175.718 67.0096 176.068C66.5396 176.408 66.3046 176.923 66.3046 177.613C66.3046 178.253 66.5296 178.768 66.9796 179.158C67.4396 179.548 68.0546 179.743 68.8246 179.743C69.5946 179.743 70.2046 179.548 70.6546 179.158C71.1046 178.768 71.3296 178.253 71.3296 177.613C71.3296 176.943 71.0996 176.433 70.6396 176.083C70.1796 175.723 69.5746 175.543 68.8246 175.543Z" fill="white"/>
<path d="M295.763 177.718C295.763 178.198 295.643 178.658 295.403 179.098C295.163 179.528 294.808 179.888 294.338 180.178C293.878 180.468 293.323 180.633 292.673 180.673V181.888H291.863V180.673C290.953 180.593 290.213 180.303 289.643 179.803C289.073 179.293 288.783 178.648 288.773 177.868H290.228C290.268 178.288 290.423 178.653 290.693 178.963C290.973 179.273 291.363 179.468 291.863 179.548V175.798C291.193 175.628 290.653 175.453 290.243 175.273C289.833 175.093 289.483 174.813 289.193 174.433C288.903 174.053 288.758 173.543 288.758 172.903C288.758 172.093 289.038 171.423 289.598 170.893C290.168 170.363 290.923 170.068 291.863 170.008V168.763H292.673V170.008C293.523 170.078 294.208 170.353 294.728 170.833C295.248 171.303 295.548 171.918 295.628 172.678H294.173C294.123 172.328 293.968 172.013 293.708 171.733C293.448 171.443 293.103 171.253 292.673 171.163V174.823C293.333 174.993 293.868 175.168 294.278 175.348C294.698 175.518 295.048 175.793 295.328 176.173C295.618 176.553 295.763 177.068 295.763 177.718ZM290.153 172.828C290.153 173.318 290.298 173.693 290.588 173.953C290.878 174.213 291.303 174.428 291.863 174.598V171.133C291.343 171.183 290.928 171.353 290.618 171.643C290.308 171.923 290.153 172.318 290.153 172.828ZM292.673 179.563C293.213 179.503 293.633 179.308 293.933 178.978C294.243 178.648 294.398 178.253 294.398 177.793C294.398 177.303 294.248 176.928 293.948 176.668C293.648 176.398 293.223 176.183 292.673 176.023V179.563ZM297.759 170.983V169.738H300.579V180.583H299.199V170.983H297.759ZM302.563 170.983V169.738H305.383V180.583H304.003V170.983H302.563ZM307.398 178.168V177.133L312.663 169.843H314.298V176.983H315.798V178.168H314.298V180.583H312.948V178.168H307.398ZM313.008 171.268L308.973 176.983H313.008V171.268ZM318.917 177.673C319.017 178.243 319.247 178.683 319.607 178.993C319.977 179.303 320.472 179.458 321.092 179.458C321.922 179.458 322.532 179.133 322.922 178.483C323.322 177.833 323.512 176.738 323.492 175.198C323.282 175.648 322.932 176.003 322.442 176.263C321.952 176.513 321.407 176.638 320.807 176.638C320.137 176.638 319.537 176.503 319.007 176.233C318.487 175.953 318.077 175.548 317.777 175.018C317.477 174.488 317.327 173.848 317.327 173.098C317.327 172.028 317.637 171.168 318.257 170.518C318.877 169.858 319.757 169.528 320.897 169.528C322.297 169.528 323.277 169.983 323.837 170.893C324.407 171.803 324.692 173.158 324.692 174.958C324.692 176.218 324.577 177.258 324.347 178.078C324.127 178.898 323.747 179.523 323.207 179.953C322.677 180.383 321.947 180.598 321.017 180.598C319.997 180.598 319.202 180.323 318.632 179.773C318.062 179.223 317.737 178.523 317.657 177.673H318.917ZM321.032 175.483C321.702 175.483 322.252 175.278 322.682 174.868C323.112 174.448 323.327 173.883 323.327 173.173C323.327 172.423 323.117 171.818 322.697 171.358C322.277 170.898 321.687 170.668 320.927 170.668C320.227 170.668 319.667 170.888 319.247 171.328C318.837 171.768 318.632 172.348 318.632 173.068C318.632 173.798 318.837 174.383 319.247 174.823C319.657 175.263 320.252 175.483 321.032 175.483Z" fill="white"/>
<path d="M154.688 94.5293H149.072V98.1773C149.317 97.8359 149.68 97.5586 150.16 97.3453C150.64 97.1213 151.157 97.0093 151.712 97.0093C152.597 97.0093 153.317 97.1959 153.872 97.5693C154.427 97.9319 154.821 98.4066 155.056 98.9933C155.301 99.5693 155.424 100.183 155.424 100.833C155.424 101.601 155.28 102.289 154.992 102.897C154.704 103.505 154.261 103.985 153.664 104.337C153.077 104.689 152.347 104.865 151.472 104.865C150.352 104.865 149.445 104.577 148.752 104.001C148.059 103.425 147.637 102.657 147.488 101.697H148.912C149.051 102.305 149.344 102.78 149.792 103.121C150.24 103.463 150.805 103.633 151.488 103.633C152.331 103.633 152.965 103.383 153.392 102.881C153.819 102.369 154.032 101.697 154.032 100.865C154.032 100.033 153.819 99.3933 153.392 98.9453C152.965 98.4866 152.336 98.2573 151.504 98.2573C150.939 98.2573 150.443 98.3959 150.016 98.6733C149.6 98.9399 149.296 99.3079 149.104 99.7773H147.728V93.2493H154.688V94.5293ZM157.359 98.9293C157.359 97.0946 157.657 95.6653 158.255 94.6413C158.852 93.6066 159.897 93.0893 161.391 93.0893C162.873 93.0893 163.913 93.6066 164.511 94.6413C165.108 95.6653 165.407 97.0946 165.407 98.9293C165.407 100.796 165.108 102.247 164.511 103.281C163.913 104.316 162.873 104.833 161.391 104.833C159.897 104.833 158.852 104.316 158.255 103.281C157.657 102.247 157.359 100.796 157.359 98.9293ZM163.967 98.9293C163.967 98.0013 163.903 97.2173 163.775 96.5773C163.657 95.9266 163.407 95.4039 163.023 95.0093C162.649 94.6146 162.105 94.4173 161.391 94.4173C160.665 94.4173 160.111 94.6146 159.727 95.0093C159.353 95.4039 159.103 95.9266 158.975 96.5773C158.857 97.2173 158.799 98.0013 158.799 98.9293C158.799 99.8893 158.857 100.695 158.975 101.345C159.103 101.996 159.353 102.519 159.727 102.913C160.111 103.308 160.665 103.505 161.391 103.505C162.105 103.505 162.649 103.308 163.023 102.913C163.407 102.519 163.657 101.996 163.775 101.345C163.903 100.695 163.967 99.8893 163.967 98.9293ZM167.374 96.1773C167.448 95.1959 167.827 94.4279 168.51 93.8733C169.192 93.3186 170.078 93.0413 171.166 93.0413C171.891 93.0413 172.515 93.1746 173.038 93.4413C173.571 93.6973 173.971 94.0493 174.238 94.4973C174.515 94.9453 174.654 95.4519 174.654 96.0173C174.654 96.6786 174.462 97.2493 174.078 97.7293C173.704 98.2093 173.214 98.5186 172.606 98.6573V98.7373C173.299 98.9079 173.848 99.2439 174.254 99.7453C174.659 100.247 174.862 100.903 174.862 101.713C174.862 102.321 174.723 102.871 174.446 103.361C174.168 103.841 173.752 104.22 173.198 104.497C172.643 104.775 171.976 104.913 171.198 104.913C170.067 104.913 169.139 104.62 168.414 104.033C167.688 103.436 167.283 102.593 167.198 101.505H168.606C168.68 102.145 168.942 102.668 169.39 103.073C169.838 103.479 170.435 103.681 171.182 103.681C171.928 103.681 172.494 103.489 172.878 103.105C173.272 102.711 173.47 102.204 173.47 101.585C173.47 100.785 173.203 100.209 172.67 99.8573C172.136 99.5053 171.331 99.3293 170.254 99.3293H169.886V98.1133H170.27C171.251 98.1026 171.992 97.9426 172.494 97.6333C172.995 97.3133 173.246 96.8226 173.246 96.1613C173.246 95.5959 173.059 95.1426 172.686 94.8013C172.323 94.4599 171.8 94.2893 171.118 94.2893C170.456 94.2893 169.923 94.4599 169.518 94.8013C169.112 95.1426 168.872 95.6013 168.798 96.1773H167.374ZM183.948 94.4013L179.5 104.833H178.028L182.54 94.5453H176.364V93.2973H183.948V94.4013Z" fill="white"/>
<ellipse cx="31.3356" cy="99.6666" rx="1.83556" ry="1.68519" fill="white"/>
<ellipse cx="37.7599" cy="99.6666" rx="1.83556" ry="1.68519" fill="white"/>
<ellipse cx="44.1844" cy="99.6666" rx="1.83556" ry="1.68519" fill="white"/>
<ellipse cx="50.6089" cy="99.6666" rx="1.83556" ry="1.68519" fill="white"/>
<ellipse cx="70.2758" cy="99.6666" rx="1.83556" ry="1.68519" fill="white"/>
<ellipse cx="76.6998" cy="99.6666" rx="1.83556" ry="1.68519" fill="white"/>
<ellipse cx="83.1244" cy="99.6666" rx="1.83556" ry="1.68519" fill="white"/>
<ellipse cx="89.549" cy="99.6666" rx="1.83556" ry="1.68519" fill="white"/>
<ellipse cx="109.215" cy="99.6666" rx="1.83556" ry="1.68519" fill="white"/>
<ellipse cx="115.64" cy="99.6666" rx="1.83556" ry="1.68519" fill="white"/>
<ellipse cx="122.064" cy="99.6666" rx="1.83556" ry="1.68519" fill="white"/>
<ellipse cx="128.489" cy="99.6666" rx="1.83556" ry="1.68519" fill="white"/>
<defs>
<linearGradient id="paint0_linear_1_77" x1="0" y1="0" x2="335.554" y2="236.354" gradientUnits="userSpaceOnUse">
<stop stop-color="#2FC8B3"/>
<stop offset="1" stop-color="#0B8E7C"/>
</linearGradient>
</defs>
</svg>
