<svg width="24" height="18" viewBox="0 0 24 18" fill="none" xmlns="http://www.w3.org/2000/svg">
<path d="M24 8H22V6H20V8H18V10H20V12H22V10H24V8Z" fill="white"/>
<path d="M16.526 8.00399L9 7.99999V11H13.301C13.069 12.27 11.797 14.586 8.5 14.586C5.598 14.586 3.23 12.182 3.23 9.21899C3.23 6.25599 5.598 3.85199 8.5 3.85199C10.151 3.85199 11.256 4.55599 11.888 5.16299L14.195 2.94099C12.714 1.55699 10.795 0.718994 8.5 0.718994C3.8 0.718994 0 4.51899 0 9.21899C0 13.919 3.8 17.719 8.5 17.719C14.348 17.719 17.36 12.865 16.526 8.00399Z" fill="white"/>
</svg>
