<svg width="24" height="24" viewBox="0 0 24 24" fill="none" xmlns="http://www.w3.org/2000/svg">
<path d="M19.699 5.44153L14.6851 3.92074H14.6614C14.6376 3.92074 14.6138 3.92074 14.5901 3.89697H14.4475C14.4237 3.89697 14.4 3.89697 14.3762 3.92074H14.3525L9.50493 5.394L4.65741 3.92074C4.49107 3.87321 4.30097 3.89697 4.1584 4.01578C4.01583 4.1346 3.92078 4.30093 3.92078 4.46727V18.0118C3.92078 18.2732 4.08711 18.4871 4.32474 18.5584L9.3386 20.0791C9.38612 20.1029 9.45741 20.1029 9.50493 20.1029C9.55246 20.1029 9.62375 20.1029 9.67127 20.0791L14.5188 18.6059L19.3663 20.0791C19.4138 20.1029 19.4851 20.1029 19.5327 20.1029C19.6515 20.1029 19.7703 20.0554 19.8653 19.9841C20.0079 19.8653 20.103 19.6989 20.103 19.5326V5.98806C20.103 5.75044 19.9366 5.51281 19.699 5.44153ZM5.03761 5.25143L8.91088 6.41578V18.7485L5.03761 17.5841V5.25143ZM10.0515 6.41578L13.9247 5.25143V17.5841L10.0515 18.7485V6.41578ZM18.9624 18.7485L15.0891 17.5841V5.25143L18.9624 6.41578V18.7485Z" fill="white"/>
</svg>
