<svg width="32" height="24" viewBox="0 0 32 24" fill="none" xmlns="http://www.w3.org/2000/svg">
<rect width="32" height="24" rx="4" fill="#060615"/>
<path d="M18.9778 17.0417H13.0273V7.32285H18.9778V17.0417Z" fill="#FF5F00"/>
<path d="M13.6389 12.1814C13.6382 13.1172 13.8503 14.041 14.2593 14.8827C14.6683 15.7245 15.2634 16.4622 15.9995 17.04C15.0878 17.7566 13.9928 18.2021 12.8397 18.3258C11.6867 18.4495 10.5221 18.2463 9.4791 17.7394C8.43608 17.2326 7.55671 16.4425 6.94148 15.4595C6.32626 14.4765 6 13.3402 6 12.1805C6 11.0209 6.32626 9.88462 6.94148 8.90162C7.55671 7.91861 8.43608 7.12852 9.4791 6.62165C10.5221 6.11478 11.6867 5.91157 12.8397 6.03526C13.9928 6.15894 15.0878 6.60453 15.9995 7.32109C15.2631 7.89908 14.6679 8.63705 14.2589 9.47911C13.8499 10.3212 13.6379 11.2453 13.6389 12.1814Z" fill="#EB001B"/>
<path d="M26.0005 12.1814C26.0004 11.0217 25.6741 9.88533 25.0588 8.90229C24.4434 7.91926 23.5639 7.12918 22.5208 6.62238C21.4776 6.11558 20.3129 5.91251 19.1598 6.03637C18.0067 6.16023 16.9117 6.60604 16 7.32282C16.7359 7.90114 17.3308 8.63904 17.7399 9.48083C18.149 10.3226 18.3615 11.2463 18.3615 12.1823C18.3615 13.1182 18.149 14.0419 17.7399 14.8837C17.3308 15.7255 16.7359 16.4634 16 17.0417C16.9117 17.7585 18.0067 18.2043 19.1598 18.3282C20.3129 18.452 21.4776 18.249 22.5208 17.7422C23.5639 17.2354 24.4434 16.4453 25.0588 15.4622C25.6741 14.4792 26.0004 13.3429 26.0005 12.1831V12.1814Z" fill="url(#paint0_linear_14270_6062)"/>
<defs>
<linearGradient id="paint0_linear_14270_6062" x1="27.8025" y1="18.2862" x2="21.0002" y2="6.00102" gradientUnits="userSpaceOnUse">
<stop stop-color="#F79E1B"/>
<stop offset="1" stop-color="#FFBF62"/>
</linearGradient>
</defs>
</svg>
