<svg width="56" height="56" viewBox="0 0 56 56" fill="none" xmlns="http://www.w3.org/2000/svg">
<path d="M0 28C0 12.536 12.536 0 28 0C43.464 0 56 12.536 56 28C56 43.464 43.464 56 28 56C12.536 56 0 43.464 0 28Z" fill="#005CCD"/>
<path fill-rule="evenodd" clip-rule="evenodd" d="M27.4021 15.878C27.6466 15.3825 28.3533 15.3825 28.5978 15.878L31.7634 22.2922C31.8605 22.489 32.0482 22.6254 32.2654 22.6569L39.344 23.6855C39.8908 23.765 40.109 24.437 39.7134 24.8226L34.5913 29.8154C34.4342 29.9686 34.3625 30.1893 34.3996 30.4056L35.6088 37.4554C35.7021 38.0001 35.1305 38.4154 34.6414 38.1582L28.3102 34.8297C28.116 34.7276 27.884 34.7276 27.6897 34.8297L21.3585 38.1582C20.8694 38.4154 20.2978 38.0001 20.3912 37.4554L21.6004 30.4056C21.6374 30.1893 21.5658 29.9686 21.4086 29.8154L16.2865 24.8226C15.8908 24.437 16.1092 23.765 16.656 23.6855L23.7346 22.6569C23.9517 22.6254 24.1394 22.489 24.2365 22.2922L27.4021 15.878Z" fill="white"/>
</svg>
