<svg width="32" height="32" viewBox="0 0 32 32" fill="none" xmlns="http://www.w3.org/2000/svg">
<circle cx="16" cy="16" r="16" fill="#005CCD"/>
<path fill-rule="evenodd" clip-rule="evenodd" d="M15.7011 9.93898C15.8233 9.69124 16.1767 9.69124 16.2989 9.93898L17.8817 13.1461C17.9303 13.2445 18.0241 13.3127 18.1327 13.3285L21.672 13.8428C21.9454 13.8825 22.0545 14.2185 21.8567 14.4113L19.2957 16.9077C19.2171 16.9843 19.1813 17.0947 19.1998 17.2028L19.8044 20.7277C19.8511 21.0001 19.5653 21.2077 19.3207 21.0791L16.1551 19.4149C16.058 19.3638 15.942 19.3638 15.8449 19.4149L12.6792 21.0791C12.4347 21.2077 12.1489 21.0001 12.1956 20.7277L12.8002 17.2028C12.8187 17.0947 12.7829 16.9843 12.7043 16.9077L10.1433 14.4113C9.94542 14.2185 10.0546 13.8825 10.328 13.8428L13.8673 13.3285C13.9759 13.3127 14.0697 13.2445 14.1183 13.1461L15.7011 9.93898Z" stroke="white" stroke-width="1.5" stroke-linecap="round"/>
</svg>
