<svg width="77" height="104" viewBox="0 0 77 104" fill="none" xmlns="http://www.w3.org/2000/svg">
<path d="M73.5843 72.3019L76.9408 63.3683C77.1473 62.8027 76.7342 62.2114 76.1404 62.2114H62.4951V72.3019H73.5843Z" fill="#FFC397"/>
<path d="M73.5841 72.3019L72.4093 78.7804H63.2178L64.4184 72.0706L73.5841 72.3019Z" fill="#FFC397"/>
<path d="M44.7698 14.497C44.7698 14.497 48.1908 10.5251 45.9058 5.5634C44.1501 1.73288 38.6378 -0.208086 33.9259 0.730262C33.9259 0.730262 16.6401 -4.35996 8.97192 12.3375" fill="#060615"/>
<path d="M41.71 27.8523L49.5976 25.6157C49.3524 23.5976 48.8231 21.3738 47.984 18.8802L46.7705 16.0651C41.7487 4.47072 28.2325 -0.876579 16.5882 4.12366C14.8067 4.88205 13.1543 6.19317 11.7085 7.82564C6.22195 14.0599 6.4285 25.5257 10.0431 30.8602C10.0431 30.8602 13.5287 36.156 19.8285 42.8402C20.5643 43.6243 21.0032 44.6526 21.042 45.7195L21.4551 56.5426L37.7984 56.2855L36.8302 53.0463C34.6227 39.8837 40.3416 42.4417 44.266 39.241C47.4159 36.6702 49.2749 33.6881 49.6622 29.7419C44.1369 30.783 41.71 27.8523 41.71 27.8523Z" fill="#FFC397"/>
<path d="M50.1648 21.8879L48.1768 22.4792C47.5571 22.672 46.8988 22.3121 46.7051 21.6951L46.4082 20.731C46.2146 20.114 46.576 19.4585 47.1957 19.2657L49.1837 18.6744C50.0745 18.4045 51.0169 18.9058 51.288 19.7927C51.5591 20.6796 51.0556 21.618 50.1648 21.8879Z" fill="#FFC397"/>
<path d="M15.9298 4.04665C14.7293 4.80504 13.1414 6.19328 11.7085 7.82575C6.22195 14.06 6.4285 25.5258 10.0431 30.8603C10.0431 30.8603 13.5287 36.1562 19.8285 42.8403C20.19 43.2259 20.474 43.6629 20.6805 44.1385C20.6805 44.1385 28.9684 42.776 28.9684 37.6729C28.9684 33.3797 24.5146 31.3487 23.8433 30.6418C21.8553 28.5594 22.4749 24.0219 24.8244 22.8008C27.174 21.5668 28.878 22.8907 29.5364 24.3175C30.1948 25.7315 36.1847 24.7931 35.7071 18.6489C35.2294 12.5046 31.3437 10.8079 29.6268 9.94668C27.9227 9.09831 27.6516 8.50702 29.7171 9.14972C32.8799 10.1395 33.8998 7.62009 33.9127 6.56605C33.9514 5.07498 36.8302 5.34491 39.3346 6.77172C33.2543 1.66864 22.3975 -0.0280958 15.9298 4.04665Z" fill="#060615"/>
<path d="M42.9491 17.8776C43.6478 17.8776 44.2142 17.3136 44.2142 16.6179C44.2142 15.9221 43.6478 15.3582 42.9491 15.3582C42.2504 15.3582 41.684 15.9221 41.684 16.6179C41.684 17.3136 42.2504 17.8776 42.9491 17.8776Z" fill="#060615"/>
<path d="M66.1743 53.5092C66.6778 52.6222 67.8654 52.3137 68.8982 52.8279L74.1265 55.4116C75.1722 55.9257 75.5982 57.0955 75.0818 58.021C74.5654 58.9464 73.3003 59.2806 72.2546 58.7665L67.22 56.2728C66.1227 55.7329 65.645 54.4732 66.1743 53.5092Z" fill="#F7A468"/>
<path d="M75.5718 64.8209C74.5778 65.0651 73.545 64.3967 73.2223 63.3041L71.5699 57.7254C71.2472 56.6071 71.8152 55.5017 72.8479 55.2574C73.8807 55.0004 74.9909 55.7073 75.3136 56.8128L76.9015 62.1858C77.2501 63.3555 76.6433 64.5638 75.5718 64.8209Z" fill="#FFC397"/>
<path d="M71.7125 64.8465C70.7184 65.0907 69.6857 64.4223 69.3629 63.3297L67.7105 57.751C67.3878 56.6327 67.9558 55.5273 68.9886 55.2831C70.0213 55.026 71.1315 55.733 71.4543 56.8384L73.0421 62.2114C73.3907 63.3811 72.7839 64.5894 71.7125 64.8465Z" fill="#FFC397"/>
<path d="M68.2143 71.1964L59.5392 70.1167C58.5968 70.001 58.0288 69.1398 58.2482 68.2014L62.2502 51.5297C62.4567 50.6685 63.3216 50.0643 64.1737 50.1672L73.1199 51.2855C73.9848 51.3883 74.5012 52.1724 74.2947 53.0336L70.2927 69.7054C70.0862 70.6437 69.1438 71.3121 68.2143 71.1964Z" fill="#3E3E40"/>
<path d="M68.6918 71.2094L60.0166 70.1296C59.0743 70.014 58.5062 69.1527 58.7257 68.2144L62.7276 51.5426C62.9342 50.6814 63.7991 50.0773 64.6511 50.1801L73.5974 51.2984C74.4623 51.4012 74.9787 52.1853 74.7721 53.0466L70.7702 69.7183C70.5766 70.6695 69.6342 71.3251 68.6918 71.2094Z" fill="#060615"/>
<path d="M58.7783 66.0419L70.8357 67.5459L74.1018 53.9719L62.0315 52.468L58.7783 66.0419Z" fill="#FFB323"/>
<path fill-rule="evenodd" clip-rule="evenodd" d="M63.5557 68.4905L63.4529 68.9127C63.3789 69.253 63.5789 69.5444 63.9064 69.5853C63.9065 69.5853 63.9065 69.5853 63.9066 69.5853L64.3332 69.6368C64.6599 69.6788 65.0136 69.4329 65.102 69.082L65.2048 68.6598C65.2788 68.3195 65.0789 68.0281 64.7513 67.9872C64.7513 67.9872 64.7512 67.9871 64.7511 67.9871L64.3275 67.936C63.9824 67.9047 63.6432 68.143 63.5557 68.4905ZM63.2948 68.426C63.4139 67.9517 63.8739 67.6248 64.3543 67.6696L64.3561 67.6698L64.7845 67.7215C65.2826 67.7835 65.5729 68.2368 65.4671 68.7184L65.4668 68.7199L65.3629 69.1465C65.2446 69.6178 64.7726 69.9629 64.2993 69.9024L63.8738 69.851L63.8733 69.851C63.3752 69.789 63.0848 69.3357 63.1906 68.854L63.1909 68.8526L63.2948 68.426Z" fill="white"/>
<path d="M74.5008 67.4558L71.2735 69.3968L67.8525 64.4351C67.349 63.7024 67.6588 62.6741 68.5496 62.1342C69.4403 61.5943 70.5764 61.7614 71.0798 62.4941L74.5008 67.4558Z" fill="#FFC397"/>
<path d="M72.4744 104H56.2344L59.7457 74.9756H75.9729L72.4744 104Z" fill="#FFB323"/>
<path d="M42.4203 50.874H14.2261V57.5839H42.4203V50.874Z" fill="#FFB323"/>
<path d="M47.1974 54H19.3776C7.28141 54 -1.85847 65.006 0.323226 76.9583L5.25463 104H72.4611L66.2517 69.945C64.5735 60.7151 56.5567 54 47.1974 54Z" fill="#FFB323"/>
</svg>
