<svg width="25" height="24" viewBox="0 0 25 24" fill="none" xmlns="http://www.w3.org/2000/svg">
<path d="M3 3.5H5.07364C5.31929 3.5 5.52855 3.67844 5.56736 3.921L7.23058 14.3158C7.38582 15.286 8.22287 15.9998 9.20546 15.9998H17.8957C18.8331 15.9998 19.6447 15.3487 19.8481 14.4337L21.2296 8.21674C21.3684 7.59222 20.8932 6.9998 20.2534 6.9998H6.33997" stroke="#005CCD" stroke-width="1.5" stroke-linecap="round"/>
<path d="M10 22C10.5523 22 11 21.5523 11 21C11 20.4477 10.5523 20 10 20C9.44772 20 9 20.4477 9 21C9 21.5523 9.44772 22 10 22Z" stroke="#005CCD" stroke-width="1.5" stroke-linecap="round"/>
<path d="M17 22C17.5523 22 18 21.5523 18 21C18 20.4477 17.5523 20 17 20C16.4477 20 16 20.4477 16 21C16 21.5523 16.4477 22 17 22Z" stroke="#005CCD" stroke-width="1.5" stroke-linecap="round"/>
</svg>
